<?xml version="1.0" encoding="UTF-8" standalone="no"?>
<!-- Created with Inkscape (http://www.inkscape.org/) -->

<svg
   xmlns:dc="http://purl.org/dc/elements/1.1/"
   xmlns:cc="http://creativecommons.org/ns#"
   xmlns:rdf="http://www.w3.org/1999/02/22-rdf-syntax-ns#"
   xmlns:svg="http://www.w3.org/2000/svg"
   xmlns="http://www.w3.org/2000/svg"
   xmlns:sodipodi="http://sodipodi.sourceforge.net/DTD/sodipodi-0.dtd"
   xmlns:inkscape="http://www.inkscape.org/namespaces/inkscape"
   width="133.26102mm"
   height="109.54215mm"
   viewBox="0 0 472.18471 388.14148"
   id="svg4383"
   version="1.1"
   inkscape:version="0.91 r13725"
   sodipodi:docname="shadowman_hand.svg">
  <defs
     id="defs4385">
    <filter
       inkscape:collect="always"
       style="color-interpolation-filters:sRGB"
       id="filter4306"
       x="-0.016560853"
       width="1.0331217"
       y="-0.043573044"
       height="1.087146">
      <feGaussianBlur
         inkscape:collect="always"
         stdDeviation="2.2451221"
         id="feGaussianBlur4308" />
    </filter>
    <filter
       inkscape:label="Button"
       inkscape:menu="Bevels"
       inkscape:menu-tooltip="Soft bevel, slightly depressed middle"
       style="color-interpolation-filters:sRGB"
       id="filter4310">
      <feGaussianBlur
         stdDeviation="2.3"
         in="SourceAlpha"
         result="result0"
         id="feGaussianBlur4312" />
      <feMorphology
         in="SourceAlpha"
         radius="6.6"
         result="result1"
         id="feMorphology4314" />
      <feGaussianBlur
         stdDeviation="8.9"
         in="result1"
         id="feGaussianBlur4316" />
      <feColorMatrix
         values="1 0 0 0 0 0 1 0 0 0 0 0 1 0 0 0 0 0 0.3 0"
         result="result91"
         id="feColorMatrix4318" />
      <feComposite
         in="result0"
         operator="out"
         result="result2"
         in2="result91"
         id="feComposite4320" />
      <feGaussianBlur
         stdDeviation="1.7"
         result="result4"
         id="feGaussianBlur4322" />
      <feDiffuseLighting
         surfaceScale="10"
         id="feDiffuseLighting4324">
        <feDistantLight
           azimuth="225"
           elevation="45"
           id="feDistantLight4326" />
      </feDiffuseLighting>
      <feBlend
         in2="SourceGraphic"
         mode="multiply"
         id="feBlend4328" />
      <feComposite
         in2="SourceAlpha"
         operator="in"
         result="result3"
         id="feComposite4330" />
      <feSpecularLighting
         in="result4"
         surfaceScale="5"
         specularExponent="17.89999962"
         id="feSpecularLighting4332">
        <feDistantLight
           azimuth="225"
           elevation="45"
           id="feDistantLight4334" />
      </feSpecularLighting>
      <feComposite
         in2="result3"
         operator="atop"
         id="feComposite4336" />
    </filter>
  </defs>
  <sodipodi:namedview
     id="base"
     pagecolor="#ffffff"
     bordercolor="#666666"
     borderopacity="1.0"
     inkscape:pageopacity="0.0"
     inkscape:pageshadow="2"
     inkscape:zoom="0.35"
     inkscape:cx="213.94949"
     inkscape:cy="5.4993115"
     inkscape:document-units="px"
     inkscape:current-layer="layer1"
     showgrid="false"
     fit-margin-top="0"
     fit-margin-left="0"
     fit-margin-right="0"
     fit-margin-bottom="0"
     inkscape:window-width="1366"
     inkscape:window-height="716"
     inkscape:window-x="-8"
     inkscape:window-y="-8"
     inkscape:window-maximized="1" />
  <metadata
     id="metadata4388">
    <rdf:RDF>
      <cc:Work
         rdf:about="">
        <dc:format>image/svg+xml</dc:format>
        <dc:type
           rdf:resource="http://purl.org/dc/dcmitype/StillImage" />
        <dc:title></dc:title>
      </cc:Work>
    </rdf:RDF>
  </metadata>
  <g
     inkscape:label="レイヤー 1"
     inkscape:groupmode="layer"
     id="layer1"
     transform="translate(-161.05051,-149.72004)">
    <g
       id="g4338"
       transform="translate(-272.95487,-344.44611)">
      <path
         inkscape:connector-curvature="0"
         id="path3347-3-1"
         d="m 881.50157,722.496 c -22.40907,1.4e-4 -55.351,6.94572 -73.57821,15.51293 -15.52099,7.30045 -15.62076,13.60978 -0.24015,15.15302 l -41.73439,0 c -8.2e-4,3.8e-4 -0.002,10e-4 -0.004,0.002 L 678.82623,752.869 c -8.49067,0 -20.88407,2.61331 -27.79027,5.85945 l -10.7233,5.0403 93.53516,0 c 0.0742,0 0.12455,0.009 0.19765,0.009 l 9.05737,0.0933 c -27.82329,13.18376 -54.94613,26.49457 -80.51337,38.53703 -25.08444,12.01031 -57.55281,27.19419 -84.50824,40.06406 -4.15233,1.95175 -3.30632,3.68502 1.79875,3.68502 l 34.8906,0 93.58345,-43.98728 c 1.78351,-0.83832 4.84385,-1.51283 6.86115,-1.51283 2.0173,0 2.20558,0.67451 0.42205,1.51283 l -93.58345,43.98728 34.8907,0 c 5.1051,0 12.55603,-1.57049 16.7084,-3.52224 l 85.58307,-40.22684 0.1113,0 76.07983,-35.76001 c 1.64087,-0.77125 4.58462,-1.39187 6.60192,-1.39187 2.0173,0 2.32213,0.62062 0.68128,1.39187 l -76.07983,35.76001 13.1836,0 c 8.4907,0 20.88448,-2.61257 27.79063,-5.85869 l 79.84015,-37.52748 c 6.90616,-3.24612 5.63054,-5.85945 -2.86016,-5.85945 l -59.8691,0 c 21.95498,-1.52435 48.77257,-7.83853 64.35731,-15.15301 18.22686,-8.56736 14.83709,-15.513 -7.57216,-15.51293 z"
         style="opacity:0.68199978;fill:#1a1a1a;fill-rule:evenodd;stroke:none;stroke-width:1px;stroke-linecap:butt;stroke-linejoin:miter;stroke-opacity:1;filter:url(#filter4306)" />
      <path
         inkscape:connector-curvature="0"
         id="path3347-3"
         d="m 611.08961,526.51127 c -22.40878,3.7e-4 -40.5739,18.16748 -40.57427,40.57618 0.0108,19.0953 13.3342,35.59822 31.99807,39.63476 l -41.73439,0 c -2e-5,10e-4 1e-5,0.003 0,0.004 l -87.7461,-0.77149 c -8.49067,0 -15.32422,6.83547 -15.32422,15.32617 l 0,13.1836 93.53516,0 c 0.0742,0 0.1437,0.0234 0.2168,0.0234 l 9.25586,0.24414 c 0.22532,34.4839 1.42137,69.30012 1.47461,100.79882 0.46762,31.41459 0.30314,71.13008 0.72851,104.79297 0,5.10507 4.5336,9.63867 9.63867,9.63868 l 34.8906,0 0,-115.05469 c 0,-2.19275 1.6253,-3.95703 3.6426,-3.95703 2.0173,0 3.6406,1.76428 3.6406,3.95703 l 0,115.05469 34.8907,0 c 5.1051,0 9.2148,-4.10783 9.2148,-9.2129 l 0,-105.21875 0.1113,0 0,-93.53515 c 0,-2.01733 1.6234,-3.64063 3.6407,-3.64063 2.0173,0 3.6425,1.6233 3.6425,3.64063 l 0,93.53515 13.1836,0 c 8.4907,0 15.3262,-6.83354 15.3262,-15.32421 l 0,-98.15821 c 0,-8.49067 -6.8355,-15.32617 -15.3262,-15.32617 l -59.8691,0 c 18.7119,-3.98716 32.096,-20.50275 32.1191,-39.63476 -3e-4,-22.40909 -18.167,-40.57635 -40.5761,-40.57618 z"
         style="fill:#00ffff;fill-opacity:1;fill-rule:evenodd;stroke:none;stroke-width:1px;stroke-linecap:butt;stroke-linejoin:miter;stroke-opacity:1;filter:url(#filter4310)" />
    </g>
  </g>
</svg>
